<svg height="512pt" viewBox="0 -69 512 512" width="512pt" xmlns="http://www.w3.org/2000/svg"><path d="m512 155.664062h-30v-55.050781l-48.894531-9.78125 5.882812-29.417969 73.011719 14.605469zm0 0" fill="#32393f"/><path d="m512 207-59.667969-21.332031-10-64 10-56.667969c0-35.839844-29.15625-65-65-65h-162.332031l-22.332031 175 79.328125 150.171875h230.003906zm0 0" fill="#fdae02"/><path d="m65 0c-35.839844 0-65 29.160156-65 65l10 59.832031-10 60.835938v139.503906h225v-325.171875zm0 0" fill="#fdcb02"/><path d="m224 325.171875h1l-1-6.722656zm0 0" fill="#929298"/><path d="m0 94v61.664062l181.332031 8.667969v-85.332031zm0 0" fill="#e8f0f3"/><path d="m452.332031 94v61.664062l-175 8.667969v-74.664062zm0 0" fill="#baedf8"/><path d="m266.996094 79h-41.996094l-11.667969 117.332031 11.667969 113.839844h41.996094zm0 0" fill="#baedf8"/><path d="m185.339844 79h39.660156v231.171875h-39.660156zm0 0" fill="#e8f0f3"/><path d="m281.996094 94h57.171875v61.667969h-57.171875zm170.335937 91.664062v-30h-83.164062v-61.664062h83.164062v-29c0-.335938-.019531-.667969-.023437-1h-227.308594l-11.667969 15 11.667969 15h26.996094v201.171875h-26.996094l-11.667969 18.492187 11.667969 11.507813h56.996094v-139.507813zm0 0" fill="#fd7816"/><path d="m225 94v-30h-225v30h83.167969v61.667969h-83.167969v30h170.339844v139.503906h54.660156v-30h-24.660156v-201.171875zm-111.832031 61.664062v-61.664062h57.171875v61.664062zm0 0" fill="#fdae02"/><path d="m435.496094 315.414062c0 24.527344-19.886719 44.414063-44.414063 44.414063-24.53125 0-44.414062-19.886719-44.414062-44.414063 0-24.527343 19.882812-44.414062 44.414062-44.414062 24.527344 0 44.414063 19.886719 44.414063 44.414062zm0 0" fill="#e2e2e7"/><path d="m391.082031 374.828125c-32.761719 0-59.414062-26.652344-59.414062-59.414063 0-32.761718 26.652343-59.414062 59.414062-59.414062s59.414063 26.652344 59.414063 59.414062c0 32.761719-26.652344 59.414063-59.414063 59.414063zm0-88.828125c-16.21875 0-29.414062 13.195312-29.414062 29.414062s13.195312 29.414063 29.414062 29.414063 29.414063-13.195313 29.414063-29.414063-13.195313-29.414062-29.414063-29.414062zm0 0" fill="#32393f"/><path d="m165.332031 315.414062c0 24.527344-19.882812 44.414063-44.414062 44.414063-24.527344 0-44.414063-19.886719-44.414063-44.414063 0-24.527343 19.886719-44.414062 44.414063-44.414062 24.53125 0 44.414062 19.886719 44.414062 44.414062zm0 0" fill="#e8f0f3"/><path d="m120.917969 374.828125c-32.761719 0-59.414063-26.652344-59.414063-59.414063 0-32.761718 26.652344-59.414062 59.414063-59.414062s59.414062 26.652344 59.414062 59.414062c0 32.761719-26.652343 59.414063-59.414062 59.414063zm0-88.828125c-16.21875 0-29.414063 13.195312-29.414063 29.414062s13.195313 29.414063 29.414063 29.414063 29.414062-13.195313 29.414062-29.414063-13.195312-29.414062-29.414062-29.414062zm0 0" fill="#474f54"/></svg>