<svg height="512" viewBox="0 0 64 64" width="512" xmlns="http://www.w3.org/2000/svg"><rect fill="#ffe477" height="16" rx="2" width="16" x="24" y="18"/><rect fill="#ffe477" height="16" rx="2" width="16" x="44" y="18"/><path d="m2 37h60v10h-60z" fill="#ff3051"/><path d="m3 3h58v4h-58z" fill="#00d7df"/><circle cx="54" cy="54" fill="#c6c5ca" r="7"/><circle cx="54" cy="54" fill="#e0e0e2" r="3"/><path d="m54 18v8l-2-2-2 2v-8z" fill="#c0ab91"/><circle cx="32" cy="54" fill="#c6c5ca" r="7"/><circle cx="32" cy="54" fill="#e0e0e2" r="3"/><path d="m34 18v8l-2-2-2 2v-8z" fill="#c0ab91"/><rect fill="#ffe477" height="16" rx="2" width="16" x="4" y="18"/><circle cx="10" cy="54" fill="#c6c5ca" r="7"/><path d="m14 18v8l-2-2-2 2v-8z" fill="#c0ab91"/><circle cx="10" cy="54" fill="#e0e0e2" r="3"/><path d="m38 35a3 3 0 0 0 3-3v-12a3 3 0 0 0 -3-3h-12a3 3 0 0 0 -3 3v12a3 3 0 0 0 3 3zm-7-16h2v4.586l-.293-.293a1 1 0 0 0 -1.414 0l-.293.293zm-6 13v-12a1 1 0 0 1 1-1h3v7a1 1 0 0 0 1.707.707l1.293-1.293 1.293 1.293a1 1 0 0 0 1.707-.707v-7h3a1 1 0 0 1 1 1v12a1 1 0 0 1 -1 1h-12a1 1 0 0 1 -1-1z"/><path d="m58 35a3 3 0 0 0 3-3v-12a3 3 0 0 0 -3-3h-12a3 3 0 0 0 -3 3v12a3 3 0 0 0 3 3zm-7-16h2v4.586l-.293-.293a1 1 0 0 0 -1.414 0l-.293.293zm-6 13v-12a1 1 0 0 1 1-1h3v7a1 1 0 0 0 1.707.707l1.293-1.293 1.293 1.293a1 1 0 0 0 1.707-.707v-7h3a1 1 0 0 1 1 1v12a1 1 0 0 1 -1 1h-12a1 1 0 0 1 -1-1z"/><path d="m18 35a3 3 0 0 0 3-3v-12a3 3 0 0 0 -3-3h-12a3 3 0 0 0 -3 3v12a3 3 0 0 0 3 3zm-7-16h2v4.586l-.293-.293a1 1 0 0 0 -1.414 0l-.293.293zm-6 13v-12a1 1 0 0 1 1-1h3v7a1 1 0 0 0 1.707.707l1.293-1.293 1.293 1.293a1 1 0 0 0 1.707-.707v-7h3a1 1 0 0 1 1 1v12a1 1 0 0 1 -1 1h-12a1 1 0 0 1 -1-1z"/><path d="m32 50a4 4 0 1 0 4 4 4 4 0 0 0 -4-4zm0 6a2 2 0 1 1 2-2 2 2 0 0 1 -2 2z"/><path d="m50 54a4 4 0 1 0 4-4 4 4 0 0 0 -4 4zm6 0a2 2 0 1 1 -2-2 2 2 0 0 1 2 2z"/><path d="m10 50a4 4 0 1 0 4 4 4 4 0 0 0 -4-4zm0 6a2 2 0 1 1 2-2 2 2 0 0 1 -2 2z"/><path d="m2 47h4.136a7.981 7.981 0 0 0 -1.41 13h-2.726v2h60v-2h-2.726a7.981 7.981 0 0 0 -1.41-13h4.136v-2h-60zm2 7a6 6 0 1 1 6 6 6.006 6.006 0 0 1 -6-6zm11.274 6a7.981 7.981 0 0 0 -1.41-13h14.272a7.981 7.981 0 0 0 -1.41 13zm16.726 0a6 6 0 1 1 6-6 6.006 6.006 0 0 1 -6 6zm28-6a6 6 0 1 1 -6-6 6.006 6.006 0 0 1 6 6zm-14 0a7.976 7.976 0 0 0 2.726 6h-11.452a7.981 7.981 0 0 0 -1.41-13h14.272a8 8 0 0 0 -4.136 7z"/><path d="m2 37h60v2h-60z"/><path d="m6 41h4v2h-4z"/><path d="m12 41h4v2h-4z"/><path d="m18 41h4v2h-4z"/><path d="m24 41h4v2h-4z"/><path d="m30 41h4v2h-4z"/><path d="m36 41h4v2h-4z"/><path d="m42 41h4v2h-4z"/><path d="m48 41h4v2h-4z"/><path d="m54 41h4v2h-4z"/><path d="m61 2h-58a1 1 0 0 0 -1 1v4a1 1 0 0 0 1 1h8v2h-3a1 1 0 0 0 -1 1v4h2v-3h6v3h2v-4a1 1 0 0 0 -1-1h-3v-2h18v2h-3a1 1 0 0 0 -1 1v4h2v-3h6v3h2v-4a1 1 0 0 0 -1-1h-3v-2h18v2h-3a1 1 0 0 0 -1 1v4h2v-3h6v3h2v-4a1 1 0 0 0 -1-1h-3v-2h8a1 1 0 0 0 1-1v-4a1 1 0 0 0 -1-1zm-1 4h-56v-2h56z"/></svg>